<svg width="180" height="180" viewBox="0 0 123 116" fill="none" xmlns="http://www.w3.org/2000/svg">
<rect x="16.5154" y="0.869574" width="105.615" height="101.274" rx="19.6663" fill="#121212" stroke="#A5AAAC" stroke-width="1.73915"/>
<path d="M0 32.6258C0 21.2842 9.19422 12.09 20.5359 12.09H86.8183C98.16 12.09 107.354 21.2842 107.354 32.6258V94.5674C107.354 105.909 98.1599 115.103 86.8183 115.103H20.5358C9.19419 115.103 0 105.909 0 94.5674V32.6258Z" fill="#A5AAAC"/>
<path d="M27.2637 27.9414C25.994 26.7573 23.9588 26.8919 22.7061 28.2352C20.9363 29.9866 19.1776 31.816 17.4092 33.7124L16.8579 34.3036C15.0937 36.1954 13.3884 38.0807 11.7651 39.9687C10.5155 41.3087 10.5288 43.3536 11.7986 44.5377C12.7262 45.5563 13.6983 46.5278 14.7046 47.4626C15.7061 48.4026 16.7463 49.303 17.8252 50.1638C19.0949 51.3479 21.1386 51.2211 22.3882 49.8811C24.2469 48.0406 26.1092 46.1114 27.9655 44.1152C29.8333 42.1235 31.6209 40.1349 33.3283 38.1493C34.581 36.806 34.5648 34.7584 33.2951 33.5743C32.3612 32.5561 31.3904 31.5833 30.38 30.6472C29.3824 29.703 28.3437 28.8011 27.2637 27.9414ZM23.8126 43.2452L18.268 38.0747L25.4798 35.8963L23.8126 43.2452Z" fill="#121212"/>
<path d="M85.0846 81.5818C85.7818 81.8355 86.4225 82.1672 87.0068 82.577C87.5912 82.9868 88.1062 83.4561 88.552 83.9852C88.9978 84.5142 89.3687 85.0872 89.6649 85.7041C89.9611 86.321 90.1737 86.9677 90.3026 87.6441C90.4315 88.3206 90.4706 89.0055 90.4199 89.6986C90.3691 90.3918 90.2213 91.0826 89.9764 91.7708C89.7284 92.4524 89.4001 93.0774 88.9916 93.6458C88.5832 94.2143 88.113 94.7138 87.5812 95.1443C87.0493 95.5748 86.4717 95.9311 85.8483 96.2133C85.2248 96.4955 84.5699 96.6951 83.8834 96.812C83.197 96.929 82.5007 96.9575 81.7946 96.8975C81.0885 96.8376 80.3836 96.6823 79.6797 96.4316C78.9826 96.1779 78.3419 95.8461 77.7575 95.4364C77.1732 95.0266 76.6581 94.5572 76.2124 94.0282C75.7666 93.4992 75.3956 92.9262 75.0995 92.3093C74.8033 91.6924 74.5907 91.0457 74.4618 90.3692C74.3329 89.6927 74.2929 89.0103 74.3418 88.322C74.3908 87.6336 74.5395 86.9405 74.7879 86.2426C75.036 85.561 75.3643 84.936 75.7727 84.3675C76.1812 83.7991 76.6514 83.2996 77.1832 82.8691C77.715 82.4386 78.2927 82.0822 78.9161 81.8C79.5395 81.5178 80.1945 81.3183 80.8809 81.2013C81.5674 81.0844 82.2612 81.055 82.9623 81.1131C83.6635 81.1712 84.3709 81.3275 85.0846 81.5818ZM80.0175 95.5035C80.6257 95.7248 81.2397 95.8607 81.8597 95.9112C82.4796 95.9617 83.0878 95.9367 83.6843 95.8363C84.2807 95.7359 84.8547 95.5588 85.4061 95.3052C85.9576 95.0515 86.4629 94.74 86.9221 94.3707C87.3813 94.0013 87.7945 93.566 88.1617 93.0646C88.529 92.5632 88.8175 92.0168 89.0272 91.4253C89.2436 90.8307 89.373 90.2291 89.4153 89.6204C89.4577 89.0118 89.4234 88.4136 89.3126 87.8258C89.2018 87.238 89.0133 86.6713 88.7472 86.1255C88.4811 85.5798 88.1568 85.0785 87.7744 84.6218C87.3919 84.1651 86.9429 83.7526 86.4274 83.3843C85.912 83.0161 85.3518 82.7246 84.7468 82.5099C84.1387 82.2885 83.5246 82.1526 82.9047 82.1022C82.2848 82.0517 81.6766 82.0767 81.0801 82.1771C80.4836 82.2775 79.9097 82.4545 79.3582 82.7082C78.8068 82.9619 78.3015 83.2734 77.8423 83.6427C77.3831 84.0121 76.9699 84.4474 76.6026 84.9488C76.2354 85.4501 75.9469 85.9966 75.7372 86.5881C75.5208 87.1827 75.3914 87.7843 75.3491 88.393C75.3067 89.0016 75.3409 89.5998 75.4518 90.1876C75.5626 90.7754 75.751 91.3421 76.0171 91.8879C76.2832 92.4336 76.6075 92.9348 76.99 93.3916C77.3725 93.8483 77.8215 94.2608 78.3369 94.629C78.8524 94.9973 79.4126 95.2888 80.0175 95.5035ZM86.7675 90.7342L87.5035 89.8196L88.0597 90.0221L86.7537 91.6489L86.1975 91.4464L86.2215 90.2727L85.4855 91.1873L84.9293 90.9848L84.9745 88.8992L85.5308 89.1016L85.5067 90.2753L86.2427 89.3607L86.7915 89.5605L86.7675 90.7342ZM83.7064 88.4376L84.2626 88.64L82.9566 90.2668L82.4004 90.0644L82.4244 88.8907L81.6884 89.8052L81.1322 89.6028L81.1774 87.5171L81.7336 87.7196L81.7096 88.8933L82.4456 87.9787L82.9944 88.1784L82.9703 89.3521L83.7064 88.4376ZM79.9092 87.0555L80.4654 87.258L79.1594 88.8848L78.6032 88.6823L78.6273 87.5086L77.8913 88.4232L77.335 88.2207L77.3803 86.1351L77.9365 86.3375L77.9124 87.5112L78.6485 86.5966L79.1973 86.7964L79.1732 87.9701L79.9092 87.0555Z" fill="#121212"/>
<path d="M34.2586 94.0245L27.1636 81.7357C27.0319 81.5088 26.8278 81.3362 26.5961 81.2557C26.3643 81.1752 26.1237 81.1934 25.9269 81.3062L17.5221 86.1586C17.326 86.2727 17.19 86.472 17.1438 86.713C17.0976 86.9539 17.1451 87.2169 17.2757 87.4445L24.5386 100.024C24.7583 100.402 25.0983 100.69 25.4845 100.824C25.8708 100.958 26.2717 100.928 26.5999 100.74L36.735 94.8886" fill="#121212"/>
<path d="M34.2586 94.0245L27.1636 81.7357C27.0319 81.5088 26.8278 81.3362 26.5961 81.2557C26.3643 81.1752 26.1237 81.1934 25.9269 81.3062L17.5221 86.1586C17.326 86.2727 17.19 86.472 17.1438 86.713C17.0976 86.9539 17.1451 87.2169 17.2757 87.4445L24.5386 100.024C24.7583 100.402 25.0983 100.69 25.4845 100.824C25.8708 100.958 26.2717 100.928 26.5999 100.74L36.735 94.8886" stroke="#121212" stroke-width="0.379238" stroke-linejoin="round"/>
<path d="M36.7344 94.8881C36.341 95.1152 35.8594 95.1523 35.3956 94.9912C34.9317 94.8301 34.5235 94.484 34.2608 94.029L28.3185 83.7365L30.5433 82.4521C30.7399 82.3385 30.9807 82.32 31.2127 82.4005C31.4446 82.4811 31.6487 82.6541 31.7801 82.8816L37.2272 92.3164C37.4899 92.7713 37.5855 93.2979 37.4931 93.7802C37.4007 94.2625 37.1278 94.661 36.7344 94.8881Z" fill="#A5AAAC" stroke="#121212" stroke-width="0.379238" stroke-linejoin="round"/>
<path d="M24.3644 86.0206L26.3419 84.8789L24.3644 86.0206ZM25.6849 88.3078L27.6625 87.1661L25.6849 88.3078ZM23.0502 92.8786L28.983 89.4533L23.0502 92.8786ZM24.3707 95.1658L30.3035 91.7405L24.3707 95.1658ZM25.6913 97.453L31.624 94.0277L25.6913 97.453Z" fill="#A5AAAC"/>
<path d="M24.3644 86.0206L26.3419 84.8789M25.6849 88.3078L27.6625 87.1661M23.0502 92.8786L28.983 89.4533M24.3707 95.1658L30.3035 91.7405M25.6913 97.453L31.624 94.0277" stroke="#A5AAAC" stroke-width="0.379238" stroke-linecap="round" stroke-linejoin="round"/>
<path d="M24.0373 90.0213L22.0597 91.1631C21.9286 91.2388 21.7681 91.2512 21.6134 91.1975C21.4588 91.1437 21.3227 91.0284 21.2352 90.8767L19.9147 88.5895C19.8271 88.4379 19.7952 88.2623 19.826 88.1016C19.8568 87.9408 19.9478 87.808 20.0789 87.7323L22.0565 86.5905C22.1876 86.5148 22.3482 86.5024 22.5028 86.5562C22.6574 86.6099 22.7935 86.7252 22.881 86.8769L24.2016 89.1641C24.2891 89.3157 24.321 89.4913 24.2902 89.652C24.2594 89.8128 24.1684 89.9456 24.0373 90.0213Z" fill="#A5AAAC"/>
<path d="M11.1967 67.6817C10.5393 67.6817 9.96537 67.5773 9.47493 67.3686C8.98449 67.1599 8.5984 66.873 8.31666 66.5077C8.04535 66.1321 7.89926 65.6938 7.87839 65.193H9.83494C9.85581 65.4643 9.98624 65.6834 10.2262 65.8504C10.4767 66.0173 10.8002 66.1008 11.1967 66.1008H11.8854C12.3654 66.1008 12.7254 66.0069 12.9654 65.819C13.2054 65.6312 13.3254 65.3756 13.3254 65.0521C13.3254 64.7495 13.2158 64.5147 12.9967 64.3477C12.788 64.1703 12.4593 64.0556 12.0106 64.0034L10.9463 63.8469C9.96537 63.7112 9.24537 63.4503 8.78623 63.0642C8.3271 62.6781 8.09753 62.099 8.09753 61.3268C8.09753 60.5233 8.36883 59.9025 8.91145 59.4642C9.45406 59.0155 10.2523 58.7912 11.3063 58.7912H11.901C12.8611 58.7912 13.628 59.0051 14.2019 59.4329C14.7759 59.8607 15.0837 60.4346 15.1254 61.1547H13.1689C13.1376 60.9251 13.0071 60.7373 12.7776 60.5912C12.5584 60.4451 12.2663 60.372 11.901 60.372H11.3063C10.8576 60.372 10.5289 60.4555 10.3202 60.6225C10.1219 60.779 10.0228 61.0138 10.0228 61.3268C10.0228 61.619 10.1115 61.8381 10.2889 61.9842C10.4662 62.1199 10.7532 62.219 11.1497 62.2816L12.261 62.4381C13.2837 62.5842 14.035 62.8608 14.515 63.2677C15.0054 63.6642 15.2506 64.2538 15.2506 65.0364C15.2506 65.8712 14.9637 66.5234 14.3898 66.993C13.8263 67.4521 12.9915 67.6817 11.8854 67.6817H11.1967ZM20.9107 67.6973C19.815 67.6973 18.9541 67.3947 18.328 66.7895C17.7019 66.1738 17.3889 65.339 17.3889 64.2851V58.932H19.3454V64.2695C19.3454 64.8225 19.4811 65.2503 19.7524 65.553C20.0237 65.8451 20.4098 65.9912 20.9107 65.9912C21.4011 65.9912 21.782 65.8451 22.0533 65.553C22.335 65.2503 22.4759 64.8225 22.4759 64.2695V58.932H24.4324V64.2851C24.4324 65.339 24.1142 66.1738 23.4777 66.7895C22.8411 67.3947 21.9855 67.6973 20.9107 67.6973ZM26.4142 67.5408V58.932H28.0107V60.0903H28.3394L28.0733 60.372C28.0733 59.892 28.209 59.5059 28.4803 59.2138C28.7516 58.9216 29.1012 58.7755 29.529 58.7755C29.9881 58.7755 30.3429 58.9633 30.5933 59.339C30.8542 59.7146 30.9847 60.2207 30.9847 60.8573L30.6403 60.0903H31.1725L30.969 60.372C30.969 59.892 31.1047 59.5059 31.376 59.2138C31.6473 58.9216 32.0073 58.7755 32.456 58.7755C32.9882 58.7755 33.4108 58.9738 33.7238 59.3703C34.0369 59.7668 34.1934 60.3042 34.1934 60.9825V67.5408H32.4716V61.0607C32.4716 60.779 32.409 60.5599 32.2838 60.4033C32.1586 60.2364 31.976 60.1529 31.736 60.1529C31.5064 60.1529 31.3238 60.2312 31.1881 60.3877C31.0629 60.5442 31.0003 60.7686 31.0003 61.0607V67.5408H29.5916V61.0607C29.5916 60.7686 29.529 60.5442 29.4038 60.3877C29.2786 60.2312 29.0959 60.1529 28.8559 60.1529C28.6159 60.1529 28.4333 60.2312 28.3081 60.3877C28.1933 60.5442 28.1359 60.7686 28.1359 61.0607V67.5408H26.4142ZM35.7995 67.5408V58.932H37.396V60.0903H37.7247L37.4586 60.372C37.4586 59.892 37.5943 59.5059 37.8656 59.2138C38.1369 58.9216 38.4864 58.7755 38.9143 58.7755C39.3734 58.7755 39.7282 58.9633 39.9786 59.339C40.2395 59.7146 40.3699 60.2207 40.3699 60.8573L40.0256 60.0903H40.5578L40.3543 60.372C40.3543 59.892 40.4899 59.5059 40.7612 59.2138C41.0326 58.9216 41.3926 58.7755 41.8413 58.7755C42.3734 58.7755 42.796 58.9738 43.1091 59.3703C43.4221 59.7668 43.5787 60.3042 43.5787 60.9825V67.5408H41.8569V61.0607C41.8569 60.779 41.7943 60.5599 41.6691 60.4033C41.5439 60.2364 41.3613 60.1529 41.1212 60.1529C40.8917 60.1529 40.7091 60.2312 40.5734 60.3877C40.4482 60.5442 40.3856 60.7686 40.3856 61.0607V67.5408H38.9769V61.0607C38.9769 60.7686 38.9143 60.5442 38.7891 60.3877C38.6638 60.2312 38.4812 60.1529 38.2412 60.1529C38.0012 60.1529 37.8186 60.2312 37.6934 60.3877C37.5786 60.5442 37.5212 60.7686 37.5212 61.0607V67.5408H35.7995ZM48.1117 67.6973C47.2248 67.6973 46.5256 67.4625 46.0143 66.993C45.503 66.5234 45.2473 65.8921 45.2473 65.099C45.2473 64.2538 45.5291 63.6016 46.0926 63.1425C46.6561 62.6834 47.4543 62.4538 48.4874 62.4538H50.6318V61.7181C50.6318 61.3007 50.4961 60.9773 50.2248 60.7477C49.9535 60.5077 49.583 60.3877 49.1135 60.3877C48.6856 60.3877 48.3309 60.4816 48.0491 60.6694C47.7674 60.8573 47.6004 61.1129 47.5482 61.4364H45.6387C45.7326 60.6225 46.0978 59.9755 46.7343 59.4955C47.3708 59.0155 48.1848 58.7755 49.1761 58.7755C50.23 58.7755 51.0596 59.0416 51.6648 59.5738C52.2805 60.0955 52.5883 60.8051 52.5883 61.7025V67.5408H50.6944V66.0382H50.3813L50.6944 65.6156C50.6944 66.2521 50.4596 66.7582 49.99 67.1338C49.5204 67.5095 48.8943 67.6973 48.1117 67.6973ZM48.7535 66.226C49.3065 66.226 49.7552 66.0851 50.0996 65.8034C50.4544 65.5217 50.6318 65.1564 50.6318 64.7077V63.659H48.5187C48.1222 63.659 47.8039 63.7738 47.5639 64.0034C47.3239 64.2329 47.2039 64.5356 47.2039 64.9112C47.2039 65.3182 47.3395 65.6417 47.6109 65.8817C47.8926 66.1112 48.2735 66.226 48.7535 66.226ZM55.2274 67.5408V58.932H57.0744V60.5755H57.5596L56.9805 61.5773C56.9805 60.6486 57.1892 59.9494 57.6066 59.4799C58.024 59.0103 58.6396 58.7755 59.4536 58.7755C60.3823 58.7755 61.1127 59.0625 61.6449 59.6364C62.1771 60.2103 62.4431 61.0033 62.4431 62.0155V62.6416H60.3927V62.1564C60.3927 61.6034 60.2466 61.1755 59.9544 60.8729C59.6727 60.5703 59.2814 60.419 58.7805 60.419C58.2692 60.419 57.8727 60.5703 57.5909 60.8729C57.3196 61.1755 57.184 61.6034 57.184 62.1564V67.5408H55.2274ZM64.331 67.5408V65.7564H67.3362V60.7007H64.7223V58.932H69.2145V65.7564H71.8754V67.5408H64.331ZM68.1188 57.492C67.7223 57.492 67.4093 57.3929 67.1797 57.1946C66.9501 56.9859 66.8353 56.7094 66.8353 56.365C66.8353 56.0207 66.9501 55.7494 67.1797 55.5511C67.4093 55.3424 67.7223 55.2381 68.1188 55.2381C68.5154 55.2381 68.8284 55.3424 69.058 55.5511C69.2875 55.7494 69.4023 56.0207 69.4023 56.365C69.4023 56.7094 69.2875 56.9859 69.058 57.1946C68.8284 57.3929 68.5154 57.492 68.1188 57.492ZM73.7475 67.5408V65.7721L78.2398 60.6538H73.8884V58.932H80.525V60.7007L75.9858 65.819H80.6972V67.5408H73.7475ZM86.6233 67.6973C85.8929 67.6973 85.2563 67.5565 84.7137 67.2747C84.1711 66.993 83.7485 66.6017 83.4459 66.1008C83.1537 65.5895 83.0076 64.9947 83.0076 64.3164V62.1564C83.0076 61.4781 83.1537 60.8886 83.4459 60.3877C83.7485 59.8764 84.1711 59.4799 84.7137 59.1981C85.2563 58.9164 85.8929 58.7755 86.6233 58.7755C87.3433 58.7755 87.9694 58.9164 88.5016 59.1981C89.0442 59.4799 89.4616 59.8764 89.7538 60.3877C90.0564 60.8886 90.2077 61.4781 90.2077 62.1564V63.706H84.9015V64.3164C84.9015 64.9216 85.0476 65.3808 85.3398 65.6938C85.632 65.9964 86.065 66.1477 86.639 66.1477C87.0772 66.1477 87.432 66.0747 87.7033 65.9286C87.9746 65.7721 88.1468 65.5477 88.2198 65.2556H90.1451C89.999 65.9964 89.6025 66.5912 88.9555 67.0399C88.319 67.4782 87.5416 67.6973 86.6233 67.6973ZM88.3138 62.6103V62.1407C88.3138 61.546 88.1729 61.092 87.8911 60.779C87.6094 60.4555 87.1868 60.2938 86.6233 60.2938C86.0598 60.2938 85.632 60.4555 85.3398 60.779C85.0476 61.1025 84.9015 61.5616 84.9015 62.1564V62.4851L88.4546 62.4538L88.3138 62.6103ZM92.7686 67.5408V58.932H94.6155V60.5755H95.1007L94.5216 61.5773C94.5216 60.6486 94.7303 59.9494 95.1477 59.4799C95.5651 59.0103 96.1808 58.7755 96.9947 58.7755C97.9234 58.7755 98.6538 59.0625 99.186 59.6364C99.7182 60.2103 99.9843 61.0033 99.9843 62.0155V62.6416H97.9338V62.1564C97.9338 61.6034 97.7877 61.1755 97.4956 60.8729C97.2138 60.5703 96.8225 60.419 96.3216 60.419C95.8103 60.419 95.4138 60.5703 95.1321 60.8729C94.8607 61.1755 94.7251 61.6034 94.7251 62.1564V67.5408H92.7686Z" fill="#121212"/>
<path d="M91.9134 35.7462L83.5834 27.4015L69.5963 40.4683L80.1772 51.0679L91.8334 40.1786L91.9134 35.7462Z" fill="#121212"/>
<path d="M85.4517 42.663C85.589 42.2206 85.1223 41.5709 84.9073 41.2736C84.7379 41.0392 84.5409 40.8225 84.3356 40.6172C84.1756 40.4549 84.0087 40.3036 83.8429 40.1553C83.7811 40.1012 83.7188 40.0488 83.6566 39.9963C83.6608 39.8791 83.669 39.7618 83.6806 39.6451C83.7592 38.8971 83.9622 38.1629 84.2363 37.4631C84.5403 37.2969 84.8428 37.1086 85.1358 36.8918C85.6705 36.4962 86.2371 36.0026 86.5217 35.3998C86.6199 35.1917 86.6523 34.8512 86.3715 34.7556C86.0486 34.6457 85.6761 34.8779 85.4372 35.0676C85.2441 35.221 85.0743 35.3985 84.9272 35.5922C84.7794 35.7875 84.6586 35.9925 84.5423 36.2015C84.4366 36.394 84.3369 36.5904 84.2435 36.7902C84.0873 36.8647 83.9309 36.935 83.7756 37.0005C83.4194 37.1477 83.0684 37.2748 82.7308 37.3972C82.5602 37.4548 82.3933 37.5111 82.2301 37.5661C81.7084 37.7451 81.1797 37.9041 80.6417 38.0309C80.0236 37.7319 79.4255 37.504 78.8628 37.3764C78.5607 37.3082 78.2693 37.2709 77.9919 37.2723C77.73 37.2736 77.4254 37.3107 77.2186 37.4823C77.1019 37.5792 77.037 37.7216 77.0588 37.8703C77.086 38.0775 77.2514 38.2312 77.4211 38.3426C77.9769 38.7074 78.734 38.6789 79.3752 38.6581C79.8169 38.6437 80.3506 38.5983 80.9579 38.5051C80.9593 38.5048 80.9606 38.5046 80.9621 38.5044C81.5169 38.7992 82.0879 39.1507 82.6568 39.5586C82.9165 39.7451 83.1751 39.9439 83.429 40.1559C83.4339 40.4673 83.4662 40.7786 83.5382 41.0837C83.5925 41.323 83.6713 41.5579 83.778 41.7811C83.8896 42.0034 84.0127 42.2169 84.1584 42.42C84.2338 42.5209 84.3183 42.6171 84.4144 42.7063C84.6288 42.9055 85.0068 43.1256 85.2855 42.9029C85.3708 42.8347 85.4238 42.7532 85.4517 42.663ZM80.0368 38.1594C79.7852 38.2074 79.5526 38.2443 79.3421 38.2709C78.824 38.3385 78.2185 38.4287 77.7284 38.1982C77.6353 38.1544 77.52 38.09 77.432 37.9907C77.3535 37.9024 77.3094 37.7842 77.4113 37.6963C77.4646 37.6502 77.5544 37.6133 77.6561 37.5904C77.7675 37.5653 77.8827 37.5553 77.9969 37.5544C78.2415 37.5527 78.5131 37.5857 78.7978 37.6495C79.2346 37.7473 79.7046 37.9122 80.1933 38.1288C80.1405 38.1394 80.088 38.1498 80.0368 38.1594ZM85.1368 35.7428C85.272 35.5645 85.4324 35.4069 85.6069 35.2758C85.6941 35.2102 85.7868 35.1537 85.8816 35.1087C85.962 35.0705 86.1529 34.9718 86.2378 35.0196C86.3778 35.0984 86.1704 35.3566 86.1146 35.4325C85.797 35.8642 85.3048 36.205 84.8411 36.4761C84.7674 36.5192 84.6931 36.5599 84.6187 36.6001C84.6666 36.5051 84.716 36.4111 84.7676 36.3187C84.8813 36.1177 85.001 35.9191 85.1368 35.7428ZM82.8223 39.3439C82.3473 39.0002 81.8709 38.6962 81.4016 38.4305C81.4581 38.4625 82.0509 38.2961 82.1771 38.2647C82.771 38.117 83.3456 37.9132 83.8916 37.6425C83.6628 38.2789 83.5001 38.9438 83.4449 39.6255C83.4403 39.6879 83.4366 39.7503 83.4339 39.8128C83.2312 39.6491 83.0269 39.4925 82.8223 39.3439ZM85.0335 42.6035C84.9354 42.6664 84.716 42.5388 84.6228 42.4708C84.3474 42.2695 84.1277 41.9897 83.9798 41.689C83.8784 41.4827 83.802 41.2636 83.7481 41.0381C83.695 40.8134 83.6668 40.5832 83.6578 40.3517C83.8201 40.4959 83.981 40.645 84.1333 40.8035C84.2871 40.9606 84.4356 41.1251 84.5693 41.2996C84.8259 41.6214 85.0478 42.0434 85.0812 42.4542C85.0878 42.5351 85.0682 42.5812 85.0335 42.6035Z" fill="#121212"/>
<path d="M91.0962 37.184L82.4179 28.4903L83.5834 27.4015L91.9134 35.7462L91.0962 37.184Z" fill="#93B1A6"/>
<path d="M76.6469 41.9897C76.3996 42.2208 76.1382 42.3287 75.8626 42.3134C75.587 42.2982 75.3196 42.1607 75.0603 41.901L74.898 41.7384L74.1637 42.4244L73.5863 41.8459L75.7997 39.7781L76.5395 40.5192C76.8095 40.7897 76.9511 41.0499 76.9645 41.2997C76.9779 41.5494 76.872 41.7795 76.6469 41.9897ZM75.3856 41.283L75.4908 41.3885C75.5776 41.4754 75.6717 41.5209 75.7734 41.525C75.8751 41.5292 75.9703 41.4897 76.0591 41.4067C76.2085 41.2672 76.2033 41.1173 76.0434 40.9572L75.8943 40.8078L75.3856 41.283Z" fill="#121212"/>
<path d="M78.4462 44.481C78.0768 44.8261 77.6939 44.9936 77.2977 44.9836C76.9014 44.9736 76.5254 44.7903 76.1697 44.434L75.4781 43.7412L77.6915 41.6734L78.4313 42.4145C78.7744 42.7582 78.9484 43.1084 78.9534 43.4651C78.9584 43.8218 78.7893 44.1605 78.4462 44.481ZM77.8255 43.9004C78.0284 43.7108 78.14 43.5316 78.1605 43.3625C78.1809 43.1934 78.1121 43.0298 77.9542 42.8715L77.7861 42.7032L76.5462 43.8615L76.6748 43.9904C76.8503 44.1662 77.0317 44.2458 77.2191 44.2292C77.4063 44.2127 77.6085 44.1031 77.8255 43.9004Z" fill="#121212"/>
<path d="M78.2442 46.5123L77.6754 45.9425L79.8889 43.8747L81.1521 45.1402L80.6722 45.5886L79.9777 44.8928L79.5553 45.2874L80.1956 45.9289L79.7157 46.3773L79.0753 45.7358L78.2442 46.5123Z" fill="#121212"/>
<path d="M16.6762 70.0732H81.9569" stroke="#D9D9D9" stroke-width="0.79806" stroke-linecap="round"/>
<path d="M26.7368 76.2871C26.5137 76.2871 26.3223 76.2509 26.1625 76.1786C26.0028 76.1032 25.8792 75.9977 25.7918 75.8621C25.7043 75.7234 25.6606 75.5591 25.6606 75.3692H26.1444C26.1444 75.5199 26.1972 75.639 26.3027 75.7264C26.4082 75.8108 26.5544 75.853 26.7413 75.853C26.9162 75.853 27.0533 75.8108 27.1528 75.7264C27.2523 75.642 27.302 75.5259 27.302 75.3782C27.302 75.2546 27.2674 75.1476 27.198 75.0572C27.1317 74.9667 27.0352 74.9049 26.9086 74.8718L26.4926 74.7497C26.2515 74.6804 26.0646 74.5628 25.9319 74.397C25.8023 74.2282 25.7375 74.0277 25.7375 73.7956C25.7375 73.6147 25.7782 73.4565 25.8596 73.3208C25.941 73.1852 26.057 73.0797 26.2078 73.0043C26.3585 72.9289 26.5363 72.8912 26.7413 72.8912C27.0428 72.8912 27.2839 72.9726 27.4648 73.1354C27.6487 73.2982 27.7421 73.5168 27.7452 73.7911H27.2568C27.2568 73.6464 27.2101 73.5333 27.1166 73.4519C27.0262 73.3675 26.8981 73.3253 26.7323 73.3253C26.5725 73.3253 26.4474 73.3645 26.357 73.4429C26.2665 73.5183 26.2213 73.6253 26.2213 73.7639C26.2213 73.8875 26.2545 73.9946 26.3208 74.085C26.3901 74.1754 26.4881 74.2387 26.6147 74.2749L27.0352 74.4015C27.2764 74.4678 27.4618 74.5854 27.5914 74.7542C27.721 74.923 27.7859 75.125 27.7859 75.3601C27.7859 75.544 27.7421 75.7068 27.6547 75.8485C27.5673 75.9872 27.4452 76.0957 27.2885 76.1741C27.1317 76.2494 26.9478 76.2871 26.7368 76.2871ZM28.7156 76.2419V75.7988H29.5883V74.198H28.8286V73.7549H30.0631V75.7988H30.8634V76.2419H28.7156ZM29.7782 73.3253C29.6727 73.3253 29.5883 73.2982 29.525 73.2439C29.4617 73.1867 29.43 73.1113 29.43 73.0179C29.43 72.9214 29.4617 72.846 29.525 72.7918C29.5883 72.7345 29.6727 72.7059 29.7782 72.7059C29.8837 72.7059 29.9681 72.7345 30.0314 72.7918C30.0947 72.846 30.1264 72.9214 30.1264 73.0179C30.1264 73.1113 30.0947 73.1867 30.0314 73.2439C29.9681 73.2982 29.8837 73.3253 29.7782 73.3253ZM31.5987 76.2419V73.7549H32.0057V74.0714H32.0961L32.0283 74.1664C32.0283 74.0277 32.066 73.9177 32.1413 73.8363C32.2167 73.7519 32.3177 73.7097 32.4443 73.7097C32.5799 73.7097 32.6839 73.7624 32.7563 73.8679C32.8317 73.9735 32.8693 74.1182 32.8693 74.302L32.7608 74.0714H32.9326L32.8603 74.1664C32.8603 74.0277 32.898 73.9177 32.9733 73.8363C33.0517 73.7519 33.1557 73.7097 33.2853 73.7097C33.4391 73.7097 33.5597 73.7685 33.6471 73.886C33.7345 74.0006 33.7782 74.1543 33.7782 74.3473V76.2419H33.3441V74.3608C33.3441 74.2674 33.323 74.195 33.2808 74.1438C33.2416 74.0925 33.1843 74.0669 33.109 74.0669C33.0336 74.0669 32.9748 74.0925 32.9326 74.1438C32.8934 74.192 32.8739 74.2629 32.8739 74.3563V76.2419H32.5076V74.3608C32.5076 74.2644 32.4865 74.192 32.4443 74.1438C32.4021 74.0925 32.3418 74.0669 32.2634 74.0669C32.188 74.0669 32.1308 74.0925 32.0916 74.1438C32.0554 74.192 32.0373 74.2629 32.0373 74.3563V76.2419H31.5987ZM34.6944 77.0558V73.7549H35.1782V74.2297H35.2822L35.1782 74.3427C35.1782 74.1468 35.2385 73.9931 35.3591 73.8815C35.4827 73.767 35.647 73.7097 35.8519 73.7097C36.1021 73.7097 36.3011 73.7941 36.4488 73.9629C36.5995 74.1287 36.6749 74.3563 36.6749 74.6457V75.3466C36.6749 75.5395 36.6402 75.7068 36.5709 75.8485C36.5046 75.9872 36.4096 76.0957 36.286 76.1741C36.1655 76.2494 36.0208 76.2871 35.8519 76.2871C35.65 76.2871 35.4872 76.2313 35.3636 76.1198C35.24 76.0052 35.1782 75.85 35.1782 75.6541L35.2822 75.7671H35.1692L35.1827 76.3459V77.0558H34.6944ZM35.6846 75.8621C35.8444 75.8621 35.968 75.8168 36.0554 75.7264C36.1459 75.633 36.1911 75.4988 36.1911 75.324V74.6728C36.1911 74.498 36.1459 74.3653 36.0554 74.2749C35.968 74.1815 35.8444 74.1347 35.6846 74.1347C35.5309 74.1347 35.4088 74.183 35.3184 74.2794C35.2279 74.3729 35.1827 74.504 35.1827 74.6728V75.324C35.1827 75.4928 35.2279 75.6254 35.3184 75.7219C35.4088 75.8153 35.5309 75.8621 35.6846 75.8621ZM39.0109 76.2419C38.8572 76.2419 38.723 76.2117 38.6085 76.1515C38.4939 76.0881 38.4035 75.9992 38.3372 75.8847C38.2739 75.7701 38.2422 75.6375 38.2422 75.4867V73.3841H37.4283V72.941H38.7306V75.4867C38.7306 75.5832 38.7577 75.6601 38.8119 75.7174C38.8662 75.7716 38.9401 75.7988 39.0335 75.7988H39.8022V76.2419H39.0109ZM40.646 76.2419V75.7988H41.5187V74.198H40.7591V73.7549H41.9935V75.7988H42.7939V76.2419H40.646ZM41.7086 73.3253C41.6031 73.3253 41.5187 73.2982 41.4554 73.2439C41.3921 73.1867 41.3605 73.1113 41.3605 73.0179C41.3605 72.9214 41.3921 72.846 41.4554 72.7918C41.5187 72.7345 41.6031 72.7059 41.7086 72.7059C41.8142 72.7059 41.8986 72.7345 41.9619 72.7918C42.0252 72.846 42.0568 72.9214 42.0568 73.0179C42.0568 73.1113 42.0252 73.1867 41.9619 73.2439C41.8986 73.2982 41.8142 73.3253 41.7086 73.3253ZM44.2255 76.2419V74.4603H43.5201V74.0172H44.2255V73.6147C44.2255 73.4067 44.2918 73.2424 44.4245 73.1219C44.5571 73.0013 44.738 72.941 44.9671 72.941H45.6951V73.3751H44.9761C44.8917 73.3751 44.8254 73.3962 44.7772 73.4384C44.732 73.4806 44.7093 73.5409 44.7093 73.6193V74.0172H45.6951V74.4603H44.7093V76.2419H44.2255ZM47.0227 77.0558L47.3799 76.0972L46.453 73.7549H46.9911L47.5111 75.1567C47.5322 75.2169 47.5533 75.2893 47.5744 75.3737C47.5955 75.4581 47.6136 75.5274 47.6286 75.5817C47.6407 75.5274 47.6573 75.4581 47.6784 75.3737C47.6995 75.2893 47.7206 75.2169 47.7417 75.1567L48.23 73.7549H48.7501L47.5382 77.0558H47.0227ZM53.5848 76.2871C53.3798 76.2871 53.2005 76.2494 53.0467 76.1741C52.896 76.0957 52.7784 75.9841 52.694 75.8394C52.6126 75.6917 52.5719 75.5199 52.5719 75.324V73.8589C52.5719 73.6599 52.6126 73.4881 52.694 73.3434C52.7784 73.1987 52.896 73.0887 53.0467 73.0133C53.2005 72.935 53.3798 72.8958 53.5848 72.8958C53.7898 72.8958 53.9677 72.935 54.1184 73.0133C54.2691 73.0917 54.3852 73.2032 54.4666 73.3479C54.551 73.4896 54.5932 73.6599 54.5932 73.8589H54.1048C54.1048 73.6871 54.0596 73.5559 53.9692 73.4655C53.8787 73.3751 53.7506 73.3299 53.5848 73.3299C53.419 73.3299 53.2894 73.3751 53.196 73.4655C53.1055 73.5559 53.0603 73.6856 53.0603 73.8544V75.324C53.0603 75.4928 53.1055 75.6239 53.196 75.7174C53.2894 75.8078 53.419 75.853 53.5848 75.853C53.7506 75.853 53.8787 75.8078 53.9692 75.7174C54.0596 75.6239 54.1048 75.4928 54.1048 75.324H54.5932C54.5932 75.5199 54.551 75.6902 54.4666 75.8349C54.3852 75.9796 54.2691 76.0912 54.1184 76.1695C53.9677 76.2479 53.7898 76.2871 53.5848 76.2871ZM56.5494 76.2826C56.3444 76.2826 56.1665 76.2434 56.0158 76.165C55.8651 76.0866 55.749 75.9751 55.6676 75.8304C55.5862 75.6857 55.5455 75.5154 55.5455 75.3194V74.6773C55.5455 74.4784 55.5862 74.3081 55.6676 74.1664C55.749 74.0217 55.8651 73.9102 56.0158 73.8318C56.1665 73.7534 56.3444 73.7142 56.5494 73.7142C56.7543 73.7142 56.9322 73.7534 57.0829 73.8318C57.2336 73.9102 57.3497 74.0217 57.4311 74.1664C57.5125 74.3081 57.5532 74.4784 57.5532 74.6773V75.3194C57.5532 75.5154 57.5125 75.6857 57.4311 75.8304C57.3497 75.9751 57.2336 76.0866 57.0829 76.165C56.9322 76.2434 56.7543 76.2826 56.5494 76.2826ZM56.5494 75.853C56.7151 75.853 56.8433 75.8078 56.9337 75.7174C57.0241 75.6239 57.0694 75.4913 57.0694 75.3194V74.6773C57.0694 74.5025 57.0241 74.3699 56.9337 74.2794C56.8433 74.189 56.7151 74.1438 56.5494 74.1438C56.3866 74.1438 56.2584 74.189 56.165 74.2794C56.0746 74.3699 56.0293 74.5025 56.0293 74.6773V75.3194C56.0293 75.4913 56.0746 75.6239 56.165 75.7174C56.2584 75.8078 56.3866 75.853 56.5494 75.853ZM58.4422 76.2419V73.7549H58.8492V74.0714H58.9396L58.8718 74.1664C58.8718 74.0277 58.9095 73.9177 58.9848 73.8363C59.0602 73.7519 59.1612 73.7097 59.2878 73.7097C59.4234 73.7097 59.5274 73.7624 59.5998 73.8679C59.6752 73.9735 59.7128 74.1182 59.7128 74.302L59.6043 74.0714H59.7761L59.7038 74.1664C59.7038 74.0277 59.7415 73.9177 59.8168 73.8363C59.8952 73.7519 59.9992 73.7097 60.1288 73.7097C60.2826 73.7097 60.4032 73.7685 60.4906 73.886C60.578 74.0006 60.6217 74.1543 60.6217 74.3473V76.2419H60.1876V74.3608C60.1876 74.2674 60.1665 74.195 60.1243 74.1438C60.0851 74.0925 60.0279 74.0669 59.9525 74.0669C59.8771 74.0669 59.8183 74.0925 59.7761 74.1438C59.7369 74.192 59.7174 74.2629 59.7174 74.3563V76.2419H59.3511V74.3608C59.3511 74.2644 59.33 74.192 59.2878 74.1438C59.2456 74.0925 59.1853 74.0669 59.1069 74.0669C59.0316 74.0669 58.9743 74.0925 58.9351 74.1438C58.8989 74.192 58.8808 74.2629 58.8808 74.3563V76.2419H58.4422ZM61.5379 77.0558V73.7549H62.0217V74.2297H62.1257L62.0217 74.3427C62.0217 74.1468 62.082 73.9931 62.2026 73.8815C62.3262 73.767 62.4905 73.7097 62.6954 73.7097C62.9457 73.7097 63.1446 73.7941 63.2923 73.9629C63.443 74.1287 63.5184 74.3563 63.5184 74.6457V75.3466C63.5184 75.5395 63.4837 75.7068 63.4144 75.8485C63.3481 75.9872 63.2531 76.0957 63.1295 76.1741C63.009 76.2494 62.8643 76.2871 62.6954 76.2871C62.4935 76.2871 62.3307 76.2313 62.2071 76.1198C62.0835 76.0052 62.0217 75.85 62.0217 75.6541L62.1257 75.7671H62.0127L62.0262 76.3459V77.0558H61.5379ZM62.5281 75.8621C62.6879 75.8621 62.8115 75.8168 62.8989 75.7264C62.9894 75.633 63.0346 75.4988 63.0346 75.324V74.6728C63.0346 74.498 62.9894 74.3653 62.8989 74.2749C62.8115 74.1815 62.6879 74.1347 62.5281 74.1347C62.3744 74.1347 62.2523 74.183 62.1619 74.2794C62.0714 74.3729 62.0262 74.504 62.0262 74.6728V75.324C62.0262 75.4928 62.0714 75.6254 62.1619 75.7219C62.2523 75.8153 62.3744 75.8621 62.5281 75.8621ZM65.8544 76.2419C65.7007 76.2419 65.5665 76.2117 65.452 76.1515C65.3374 76.0881 65.247 75.9992 65.1807 75.8847C65.1174 75.7701 65.0857 75.6375 65.0857 75.4867V73.3841H64.2718V72.941H65.5741V75.4867C65.5741 75.5832 65.6012 75.6601 65.6554 75.7174C65.7097 75.7716 65.7836 75.7988 65.877 75.7988H66.6457V76.2419H65.8544ZM68.4798 76.2871C68.2778 76.2871 68.1 76.2479 67.9462 76.1695C67.7955 76.0881 67.6794 75.9751 67.598 75.8304C67.5167 75.6857 67.476 75.5169 67.476 75.324V74.6728C67.476 74.4769 67.5167 74.3081 67.598 74.1664C67.6794 74.0217 67.7955 73.9102 67.9462 73.8318C68.1 73.7504 68.2778 73.7097 68.4798 73.7097C68.6848 73.7097 68.8626 73.7504 69.0134 73.8318C69.1641 73.9102 69.2802 74.0217 69.3615 74.1664C69.4429 74.3081 69.4836 74.4769 69.4836 74.6728V75.116H67.9462V75.324C67.9462 75.5078 67.9914 75.648 68.0819 75.7445C68.1753 75.841 68.3095 75.8892 68.4843 75.8892C68.626 75.8892 68.7406 75.8651 68.828 75.8168C68.9154 75.7656 68.9697 75.6917 68.9908 75.5953H69.4746C69.4384 75.8063 69.3299 75.9751 69.149 76.1017C68.9681 76.2253 68.7451 76.2871 68.4798 76.2871ZM69.0134 74.822V74.6683C69.0134 74.4874 68.9681 74.3473 68.8777 74.2478C68.7873 74.1483 68.6546 74.0986 68.4798 74.0986C68.308 74.0986 68.1753 74.1483 68.0819 74.2478C67.9914 74.3473 67.9462 74.4889 67.9462 74.6728V74.7859L69.0495 74.7813L69.0134 74.822ZM70.3003 76.2419L71.173 74.9577L70.3546 73.7549H70.9153L71.3539 74.4422C71.375 74.4784 71.3961 74.5176 71.4172 74.5598C71.4383 74.599 71.4549 74.6321 71.4669 74.6593C71.476 74.6321 71.491 74.599 71.5121 74.5598C71.5332 74.5176 71.5544 74.4784 71.5755 74.4422L72.0141 73.7549H72.5748L71.7563 74.9622L72.6245 76.2419H72.0638L71.58 75.4958C71.5589 75.4596 71.5378 75.4189 71.5167 75.3737C71.4956 75.3285 71.479 75.2923 71.4669 75.2652C71.4549 75.2923 71.4368 75.3285 71.4127 75.3737C71.3916 75.4189 71.369 75.4596 71.3448 75.4958L70.8565 76.2419H70.3003ZM73.4547 76.2419V75.7988H74.3275V74.198H73.5678V73.7549H74.8022V75.7988H75.6026V76.2419H73.4547ZM74.5174 73.3253C74.4119 73.3253 74.3275 73.2982 74.2641 73.2439C74.2008 73.1867 74.1692 73.1113 74.1692 73.0179C74.1692 72.9214 74.2008 72.846 74.2641 72.7918C74.3275 72.7345 74.4119 72.7059 74.5174 72.7059C74.6229 72.7059 74.7073 72.7345 74.7706 72.7918C74.8339 72.846 74.8655 72.9214 74.8655 73.0179C74.8655 73.1113 74.8339 73.1867 74.7706 73.2439C74.7073 73.2982 74.6229 73.3253 74.5174 73.3253ZM77.6989 76.2419C77.4728 76.2419 77.2965 76.1801 77.1699 76.0565C77.0433 75.9329 76.98 75.7611 76.98 75.541V74.198H76.2927V73.7549H76.98V73.054H77.4683V73.7549H78.4405V74.198H77.4683V75.541C77.4683 75.7128 77.5512 75.7988 77.717 75.7988H78.3953V76.2419H77.6989ZM79.8315 77.0558L80.1887 76.0972L79.2617 73.7549H79.7998L80.3198 75.1567C80.3409 75.2169 80.362 75.2893 80.3831 75.3737C80.4042 75.4581 80.4223 75.5274 80.4374 75.5817C80.4494 75.5274 80.466 75.4581 80.4871 75.3737C80.5082 75.2893 80.5293 75.2169 80.5504 75.1567L81.0388 73.7549H81.5588L80.3469 77.0558H79.8315Z" fill="#121212"/>
</svg>
